<svg xmlns="http://www.w3.org/2000/svg" xmlns:xlink="http://www.w3.org/1999/xlink" width="320" zoomAndPan="magnify" viewBox="0 0 240 239.999995" height="320" preserveAspectRatio="xMidYMid meet" version="1.0"><defs><g/><clipPath id="1d90410f97"><path d="M 120 99 L 223.496094 99 L 223.496094 202.976562 L 120 202.976562 Z M 120 99 " clip-rule="nonzero"/></clipPath><clipPath id="8ed2b71bd7"><path d="M 16.496094 47.726562 L 121 47.726562 L 121 152 L 16.496094 152 Z M 16.496094 47.726562 " clip-rule="nonzero"/></clipPath><clipPath id="4257abc74d"><path d="M 120 47.726562 L 189 47.726562 L 189 117 L 120 117 Z M 120 47.726562 " clip-rule="nonzero"/></clipPath><clipPath id="eeedee846e"><path d="M 51 134 L 121 134 L 121 202.976562 L 51 202.976562 Z M 51 134 " clip-rule="nonzero"/></clipPath><clipPath id="4b356cd626"><path d="M 1 1 L 1.839844 1 L 1.839844 2 L 1 2 Z M 1 1 " clip-rule="nonzero"/></clipPath><clipPath id="3a4b530e41"><rect x="0" width="2" y="0" height="3"/></clipPath></defs><g clip-path="url(#1d90410f97)"><path fill="#ff0059" d="M 223.335938 125.449219 L 145.621094 203.15625 L 120.003906 177.535156 L 154.757812 142.785156 L 172.09375 125.449219 L 197.71875 99.832031 Z M 223.335938 125.449219 " fill-opacity="1" fill-rule="nonzero"/></g><g clip-path="url(#8ed2b71bd7)"><path fill="#ff0059" d="M 16.671875 125.441406 L 94.382812 47.734375 L 120.003906 73.355469 L 85.25 108.101562 L 67.910156 125.441406 L 42.285156 151.054688 Z M 16.671875 125.441406 " fill-opacity="1" fill-rule="nonzero"/></g><path fill="#2d005e" d="M 93.515625 125.445312 L 120 98.960938 L 146.484375 125.445312 L 120 151.929688 Z M 93.515625 125.445312 " fill-opacity="1" fill-rule="nonzero"/><g clip-path="url(#4257abc74d)"><path fill="#2d005e" d="M 188.929688 91.042969 L 163.3125 116.664062 L 120.003906 73.351562 L 145.621094 47.726562 Z M 188.929688 91.042969 " fill-opacity="1" fill-rule="nonzero"/></g><g clip-path="url(#eeedee846e)"><path fill="#2d005e" d="M 51.074219 159.84375 L 76.695312 134.222656 L 120.003906 177.539062 L 94.382812 203.164062 Z M 51.074219 159.84375 " fill-opacity="1" fill-rule="nonzero"/></g><g transform="matrix(1, 0, 0, 1, 32, 8)"><g clip-path="url(#3a4b530e41)"><g clip-path="url(#4b356cd626)"><g fill="#ffffff" fill-opacity="1"><g transform="translate(1.145837, 1.923613)"><g><path d="M 0.515625 -0.265625 C 0.515625 -0.265625 0.515625 -0.257812 0.515625 -0.25 C 0.472656 -0.125 0.421875 -0.0625 0.359375 -0.0625 C 0.316406 -0.0625 0.285156 -0.078125 0.265625 -0.109375 C 0.242188 -0.128906 0.226562 -0.160156 0.21875 -0.203125 C 0.207031 -0.160156 0.191406 -0.128906 0.171875 -0.109375 C 0.148438 -0.0859375 0.128906 -0.078125 0.109375 -0.078125 C 0.078125 -0.078125 0.0507812 -0.09375 0.03125 -0.125 C 0.0078125 -0.15625 0 -0.195312 0 -0.25 C 0 -0.3125 0.015625 -0.359375 0.046875 -0.390625 C 0.078125 -0.429688 0.117188 -0.453125 0.171875 -0.453125 C 0.191406 -0.453125 0.207031 -0.445312 0.21875 -0.4375 C 0.21875 -0.476562 0.21875 -0.507812 0.21875 -0.53125 C 0.226562 -0.5625 0.234375 -0.585938 0.234375 -0.609375 C 0.234375 -0.628906 0.234375 -0.640625 0.234375 -0.640625 C 0.234375 -0.660156 0.25 -0.671875 0.28125 -0.671875 C 0.300781 -0.671875 0.316406 -0.664062 0.328125 -0.65625 C 0.335938 -0.644531 0.34375 -0.632812 0.34375 -0.625 C 0.34375 -0.613281 0.34375 -0.601562 0.34375 -0.59375 C 0.34375 -0.59375 0.34375 -0.585938 0.34375 -0.578125 C 0.34375 -0.554688 0.335938 -0.53125 0.328125 -0.5 C 0.328125 -0.46875 0.328125 -0.429688 0.328125 -0.390625 C 0.328125 -0.359375 0.328125 -0.320312 0.328125 -0.28125 C 0.328125 -0.25 0.328125 -0.222656 0.328125 -0.203125 C 0.328125 -0.179688 0.328125 -0.160156 0.328125 -0.140625 C 0.335938 -0.128906 0.34375 -0.125 0.34375 -0.125 C 0.375 -0.144531 0.40625 -0.191406 0.4375 -0.265625 C 0.445312 -0.273438 0.457031 -0.28125 0.46875 -0.28125 C 0.476562 -0.28125 0.488281 -0.273438 0.5 -0.265625 C 0.507812 -0.265625 0.515625 -0.265625 0.515625 -0.265625 Z M 0.203125 -0.34375 C 0.203125 -0.351562 0.203125 -0.359375 0.203125 -0.359375 C 0.203125 -0.367188 0.203125 -0.378906 0.203125 -0.390625 C 0.191406 -0.390625 0.175781 -0.382812 0.15625 -0.375 C 0.132812 -0.363281 0.117188 -0.34375 0.109375 -0.3125 C 0.0976562 -0.289062 0.09375 -0.257812 0.09375 -0.21875 C 0.09375 -0.195312 0.09375 -0.179688 0.09375 -0.171875 C 0.101562 -0.160156 0.109375 -0.148438 0.109375 -0.140625 C 0.128906 -0.171875 0.144531 -0.203125 0.15625 -0.234375 C 0.175781 -0.273438 0.191406 -0.3125 0.203125 -0.34375 Z M 0.203125 -0.34375 "/></g></g></g></g></g></g></svg>